# xmcd
#
# Track frame offsets:
#	150
#	15342
#	30477
#	55627
#	67987
#	92052
#	104547
#	116247
#	129725
#	144602
#	162782
#	175707
#	186515
#	193695
#	211755
#
# Disc length: 3107 seconds
#
# Revision: 1
# Processed by: cddbd v1.5PL3 Copyright (c) Steve Scherf et al.
# Submitted via: dBpowerAMP V4.0
#
DISCID=cc0c210f
DTITLE=Various Artist - Satchmos-Hits;ClassicCSI7501
DYEAR=1900
DGENRE=Jazz
TTITLE0=OnTheSunnySideOfTheStreet(LouisArmstrong,AKASatchmo,AKADippermouth,NewOrleans,LA) - LouisArmstrong,AKASatchmo,AKADippermouth,NewOrleans,LA
TTITLE1=NewOrleansStomp(LouisArmstrong,AKASatchmo,AKADippermouth,NewOrleans,LA) - LouisArmstrong,AKASatchmo,AKADippermouth,NewOrleans,LA
TTITLE2=WayDownYonderInNewOrleans(LouisArmstrong,AKASatchmo,AKADippermouth,NewOrleans,LA) - LouisArmstrong,AKASatchmo,AKADippermouth,NewOrleans,LA
TTITLE3=TigerRag(LouisArmstrong,AKASatchmo,AKADippermouth,NewOrleans,LA) - LouisArmstrong,AKASatchmo,AKADippermouth,NewOrleans,LA
TTITLE4=IWantABigButterAndEggMan(LouisArmstrong,AKASatchmo,AKADippermouth,NewOrleans,LA) - LouisArmstrong,AKASatchmo,AKADippermouth,NewOrleans,LA
TTITLE5=JellyRollBlues(LouisArmstrong,AKASatchmo,AKADippermouth,NewOrleans,LA) - LouisArmstrong,AKASatchmo,AKADippermouth,NewOrleans,LA
TTITLE6=JeepersCreepers(LouisArmstrong,AKASatchmo,AKADippermouth,NewOrleans,LA) - LouisArmstrong,AKASatchmo,AKADippermouth,NewOrleans,LA
TTITLE7=SnakeRag(LouisArmstrong,AKASatchmo,AKADippermouth,NewOrleans,LA) - LouisArmstrong,AKASatchmo,AKADippermouth,NewOrleans,LA
TTITLE8=ChimesBlues(LouisArmstrong,AKASatchmo,AKADippermouth,NewOrleans,LA) - LouisArmstrong,AKASatchmo,AKADippermouth,NewOrleans,LA
TTITLE9=Ain'tMisbehavin'(LouisArmstrong,AKASatchmo,AKADippermouth,NewOrleans,LA) - LouisArmstrong,AKASatchmo,AKADippermouth,NewOrleans,LA
TTITLE10=MuskratRamble(LouisArmstrong,AKASatchmo,AKADippermouth,NewOrleans,LA) - LouisArmstrong,AKASatchmo,AKADippermouth,NewOrleans,LA
TTITLE11=Mame(LouisArmstrong,AKASatchmo,AKADippermouth,NewOrleans,LA) - LouisArmstrong,AKASatchmo,AKADippermouth,NewOrleans,LA
TTITLE12=WhenTheSaintsGoMarchingIn(LouisArmstrong,AKASatchmo,AKADippermouth,NewOrleans,LA) - LouisArmstrong,AKASatchmo,AKADippermouth,NewOrleans,LA
TTITLE13=Panama(LouisArmstrong,AKASatchmo,AKADippermouth,NewOrleans,LA) - LouisArmstrong,AKASatchmo,AKADippermouth,NewOlreans,LA
TTITLE14=SaintJamesInfirmary(LouisArmstrong,AKASatchmo,AKADippermouth,NewOrleans,LA) - LouisArmstrong,AKASatchmo,AKADippermouth,NewOrleans,LA
EXTD=more info - MillenniumMusicProjectFormat - SYNTAX=SongTitle{Subtitle}[miscInfo](Lyricist;Composer;Date,Artist,Location,State,Country)
EXTT0=
EXTT1=
EXTT2=
EXTT3=
EXTT4=
EXTT5=
EXTT6=
EXTT7=
EXTT8=
EXTT9=
EXTT10=
EXTT11=
EXTT12=
EXTT13=
EXTT14=
PLAYORDER=
